<?xml version="1.0" encoding="UTF-8" standalone="no"?>
<!-- Created with Inkscape (http://www.inkscape.org/) -->

<svg
   width="200"
   height="200"
   viewBox="0 0 52.916665 52.916666"
   version="1.1"
   id="svg1"
   inkscape:version="1.4 (86a8ad7, 2024-10-11)"
   sodipodi:docname="Gear.svg"
   xmlns:inkscape="http://www.inkscape.org/namespaces/inkscape"
   xmlns:sodipodi="http://sodipodi.sourceforge.net/DTD/sodipodi-0.dtd"
   xmlns="http://www.w3.org/2000/svg"
   xmlns:svg="http://www.w3.org/2000/svg">
  <sodipodi:namedview
     id="namedview1"
     pagecolor="#ffffff"
     bordercolor="#666666"
     borderopacity="1.0"
     inkscape:showpageshadow="2"
     inkscape:pageopacity="0.0"
     inkscape:pagecheckerboard="0"
     inkscape:deskcolor="#d1d1d1"
     inkscape:document-units="px"
     inkscape:zoom="0.5"
     inkscape:cx="396"
     inkscape:cy="561"
     inkscape:window-width="1920"
     inkscape:window-height="1017"
     inkscape:window-x="1912"
     inkscape:window-y="-8"
     inkscape:window-maximized="1"
     inkscape:current-layer="layer1" />
  <defs
     id="defs1" />
  <g
     inkscape:label="Layer 1"
     inkscape:groupmode="layer"
     id="layer1">
    <path
       style="fill:#000000;stroke-width:1.06952"
       d="m 21.223263,50.259064 v -2.6576 l -0.77819,-0.18729 c -0.428,-0.10299 -1.77059,-0.64884 -2.98354,-1.21297 l -2.20536,-1.02569 -1.763933,1.74825 c -0.97016,0.96154 -1.88976,1.74825 -2.04354,1.74825 -0.35949,0 -7.20405,-6.85248 -7.20405,-7.21238 0,-0.1492 0.7850502,-1.06337 1.7445602,-2.03149 l 1.74457,-1.7602 -1.01906,-2.22932 c -0.56047,-1.22613 -1.10466,-2.5704 -1.20929,-2.98727 -0.1894,-0.75464 -0.20184,-0.75794 -2.8478302,-0.75794 H 0 v -5.23507 -5.23508 h 2.6576 c 2.6459902,0 2.6584302,-0.003 2.8478302,-0.75794 0.1046,-0.41687 0.64882,-1.76114 1.20929,-2.98727 l 1.01906,-2.22932 -1.74457,-1.76021 c -0.95951,-0.96812 -1.7445602,-1.88603 -1.7445602,-2.03982 0,-0.35948 6.85247,-7.204056 7.21239,-7.204056 0.1492,0 1.06153,0.783229 2.02739,1.740516 l 1.756123,1.7405 1.50907,-0.71451 c 0.82999,-0.39298 2.17609,-0.95142 2.99135,-1.240977 l 1.48229,-0.52646 V 2.62186 0 h 5.23507 5.23507 v 2.657603 c 0,2.645996 0.003,2.658435 0.75795,2.847836 0.41687,0.104599 1.76114,0.648805 2.98727,1.209285 l 2.22933,1.01905 1.7602,-1.74456 c 0.96811,-0.959508 1.88603,-1.744566 2.03982,-1.744566 0.35949,0 7.20404,6.852486 7.20404,7.212396 0,0.1492 -0.78504,1.06336 -1.74455,2.03148 l -1.74457,1.76021 1.01906,2.22932 c 0.56047,1.22613 1.10465,2.5704 1.20928,2.98727 0.1894,0.75463 0.20183,0.75794 2.84783,0.75794 h 2.65761 v 5.23508 5.23507 h -2.65761 c -2.646,0 -2.65843,0.003 -2.84783,0.75794 -0.1046,0.41687 -0.64881,1.76114 -1.20928,2.98727 l -1.01906,2.22932 1.74457,1.7602 c 0.95951,0.96812 1.74455,1.88604 1.74455,2.03982 0,0.3595 -6.85247,7.20405 -7.21238,7.20405 -0.1492,0 -1.06235,-0.78405 -2.02923,-1.74233 l -1.75796,-1.74233 -1.8279,0.87315 c -1.00535,0.48022 -2.35063,1.02974 -2.98952,1.22116 l -1.16162,0.34802 v 2.6435 2.64349 h -5.23507 -5.23507 z m 10.45629,-13.26093 c 2.3524,-1.18373 4.14928,-2.99889 5.39041,-5.44529 0.95525,-1.88288 0.99043,-2.06381 0.99043,-5.0945 0,-3.03026 -0.0353,-3.212 -0.99043,-5.09687 -1.2809,-2.52783 -3.08513,-4.33817 -5.51642,-5.53508 -1.86064,-0.916 -2.09027,-0.95922 -5.09521,-0.95922 -3.00686,0 -3.23363,0.0428 -5.10131,0.96223 -2.45536,1.20877 -4.24036,2.99689 -5.51091,5.52058 -0.95366,1.89421 -0.98983,2.08088 -0.98983,5.10836 0,3.02366 0.037,3.21509 0.97862,5.07033 1.19992,2.36404 2.74961,4.0194 4.89942,5.23351 2.02053,1.14109 3.61809,1.44611 6.71443,1.28203 1.9958,-0.10578 2.7161,-0.28387 4.2308,-1.04608 z"
       id="path26" />
  </g>
</svg>
